:SAMPLES-PER-SECOND 30
:FULLY-SPECIFIED
:DEGREES
1418
root  74.5475 38.2801 9.33074 -163.547 87.7677 -158.194
RightUpLeg  3.05104 3.16116 -13.6567
RightLeg  21.7313 -2.46518 -1.17694
RightFoot  -4.14292 -1.14651 17.7116
RightToes  3.49245e-010 0 -3.6325e-017
Spine  8.32388 -0.777731 4.83062
Spine1  9.33911 -0.49054 -0.15689
HEad  -42.0838 -0.0450958 -2.51585
LeftShoulder1  2.17937 -3.84451 -23.4056
LeftArm  -1.35002 -49.0322 -36.5563
LeftForeArm  -14.9097 -23.3919 -5.70101
LeftHand  -0.0517718 4.14008 3.04163
RightShoulder  1.16066 1.76261 15.3106
RightArm  20.8692 53.6147 50.7193
RightForeArm  -68.4801 -5.09385 13.6748
RightHand  2.46021 10.5229 17.3824
LeftUpLeg  -12.5187 9.918 5.55646
LeftLeg  16.4258 -5.33424 -1.49105
LeftFoot  4.46585 -0.155677 0.923912
LeftToes  -2.21735e-009 9.83027e-011 -4.04511e-011
1419
root  74.9619 38.5011 8.78037 -154.333 87.8395 -149.063
RightUpLeg  1.47292 -1.77927 -14.1298
RightLeg  24.8518 -4.21186 -2.3534
RightFoot  -0.534236 -1.54584 16.3524
RightToes  3.49245e-010 0 -3.6325e-017
Spine  7.87381 -0.925392 3.93862
Spine1  9.91322 -0.964462 1.09245
HEad  -41.8876 1.30765 -3.23972
LeftShoulder1  2.18102 -3.86616 -23.3377
LeftArm  -1.8046 -47.9508 -36.813
LeftForeArm  -13.7499 -24.1595 -5.8258
LeftHand  -0.0612664 3.45167 2.65093
RightShoulder  1.17554 1.84957 15.223
RightArm  23.1833 51.4848 50.9456
RightForeArm  -85.9961 -4.02538 16.23
RightHand  3.25959 6.04848 31.1929
LeftUpLeg  -11.2141 10.4851 5.09931
LeftLeg  15.2934 -5.28639 -1.43573
LeftFoot  4.0732 -0.214285 1.39938
LeftToes  -2.21735e-009 9.83027e-011 -4.04511e-011
1420
root  75.2252 38.6721 8.26321 -134.038 88.0292 -129.687
RightUpLeg  -1.31561 -6.29384 -13.9113
RightLeg  27.1961 -4.60088 -2.77809
RightFoot  1.08169 -1.46499 13.4914
RightToes  3.49245e-010 0 -3.6325e-017
Spine  7.07486 -1.04977 4.13087
Spine1  10.3586 -1.09895 0.894914
HEad  -42.6436 1.74928 -3.01598
LeftShoulder1  2.14699 -3.7178 -23.4808
LeftArm  -2.66949 -47.4205 -37.122
LeftForeArm  -12.9431 -24.0982 -5.78155
LeftHand  -0.057285 3.82344 2.97644
RightShoulder  1.19899 2.02634 14.9136
RightArm  25.1545 49.437 51.8197
RightForeArm  -86.3023 -4.20191 16.8875
RightHand  4.58381 9.68305 33.7053
LeftUpLeg  -11.1408 10.5162 4.74469
LeftLeg  14.2982 -4.51869 -1.25761
LeftFoot  4.01517 -0.289887 1.96986
LeftToes  -2.21735e-009 9.83027e-011 -4.04511e-011
1421
root  75.3816 38.7459 7.93943 -122.298 88.5598 -117.789
RightUpLeg  -2.23309 -7.96032 -13.4307
RightLeg  27.4252 -1.3573 -1.01945
RightFoot  -2.12305 -1.27525 15.4679
RightToes  3.49245e-010 0 -3.6325e-017
Spine  7.92471 -0.804531 3.19014
Spine1  10.4707 -0.899384 0.718018
HEad  -43.7659 1.74718 -2.71602
LeftShoulder1  2.13832 -3.6287 -23.7433
LeftArm  -2.28353 -47.8226 -37.4654
LeftForeArm  -13.2106 -23.6629 -5.70296
LeftHand  -0.0578402 4.05531 3.4751
RightShoulder  1.16903 1.94266 14.6715
RightArm  27.4636 47.1677 52.957
RightForeArm  -89.4141 -4.32098 17.8445
RightHand  5.9949 11.8757 38.1928
LeftUpLeg  -10.1929 10.8151 4.27938
LeftLeg  13.627 -3.93211 -1.32241
LeftFoot  3.86649 -0.320883 2.22621
LeftToes  -2.21735e-009 9.83027e-011 -4.04511e-011
1422
root  75.53 38.8151 7.7075 -113.178 88.8736 -108.439
RightUpLeg  -2.12294 -9.09848 -12.3375
RightLeg  25.4716 3.40848 1.53371
RightFoot  -4.39183 -1.02151 16.4322
RightToes  3.49245e-010 0 -3.6325e-017
Spine  8.55286 -0.429648 3.53058
Spine1  10.9945 -0.163208 -0.539428
HEad  -45.2871 0.0627502 -1.80451
LeftShoulder1  2.1466 -3.56402 -24.1546
LeftArm  0.119966 -49.2883 -38.2055
LeftForeArm  -13.0351 -23.0798 -5.63496
LeftHand  -0.0648382 3.89773 3.10544
RightShoulder  1.06859 1.53372 14.4057
RightArm  26.0663 44.1216 54.0206
RightForeArm  -91.8365 -3.81178 17.4643
RightHand  6.56514 11.0319 43.5594
LeftUpLeg  -9.24652 10.7655 3.95775
LeftLeg  12.9507 -3.36663 -1.42075
LeftFoot  3.84968 -0.373095 2.62452
LeftToes  -2.21735e-009 9.83027e-011 -4.04511e-011
1423
root  75.6492 38.7505 7.55557 -115.574 89.4572 -110.744
RightUpLeg  -2.37262 -9.9744 -11.361
RightLeg  23.2875 3.94227 1.70382
RightFoot  -6.21103 -0.853264 18.1781
RightToes  3.49245e-010 0 -3.6325e-017
Spine  9.32176 -0.198915 1.88471
Spine1  10.6698 -0.138672 -0.561248
HEad  -45.9722 -0.202143 -1.89233
LeftShoulder1  2.13775 -3.48073 -24.4007
LeftArm  1.36811 -49.4813 -38.5037
LeftForeArm  -13.8418 -22.3683 -5.6746
LeftHand  -0.0592078 3.91663 3.21725
RightShoulder  1.08585 1.6046 14.4469
RightArm  15.4629 43.6801 55.1052
RightForeArm  -83.5983 -5.5258 14.3351
RightHand  5.15686 7.08972 44.8256
LeftUpLeg  -9.284 10.5544 3.22437
LeftLeg  13.7341 -2.70992 -1.47409
LeftFoot  3.19369 -0.370115 2.74965
LeftToes  -2.21735e-009 9.83027e-011 -4.04511e-011
1424
root  75.8029 38.8245 7.32486 -125.833 89.9228 -121.06
RightUpLeg  -2.53345 -9.39071 -9.68851
RightLeg  21.5989 -3.77219 -1.90223
RightFoot  -4.23813 -0.849178 13.0297
RightToes  3.49245e-010 0 -3.6325e-017
Spine  9.56641 -0.135871 1.00774
Spine1  10.2369 -0.216171 0.0225076
HEad  -46.0491 -0.0459457 -1.97733
LeftShoulder1  2.11385 -3.41008 -24.3654
LeftArm  1.04161 -48.8272 -38.6609
LeftForeArm  -13.5013 -22.1748 -5.66734
LeftHand  -0.0554007 4.04543 3.08608
RightShoulder  1.1903 2.00101 14.8466
RightArm  19.5867 42.5289 54.3396
RightForeArm  -85.1468 -4.0774 15.7751
RightHand  6.27255 10.516 43.2066
LeftUpLeg  -8.59187 10.042 2.62185
LeftLeg  12.877 -1.68438 -1.28734
LeftFoot  3.09555 -0.340415 2.5386
LeftToes  -2.21735e-009 9.83027e-011 -4.04511e-011
1425
root  75.9599 38.8259 7.0075 16.3131 88.6009 20.505
RightUpLeg  -3.57394 -10.4307 -9.47809
RightLeg  22.0584 -9.2509 -4.29603
RightFoot  -4.17792 -0.684843 10.4977
RightToes  3.49245e-010 0 -3.6325e-017
Spine  8.38163 0.0611327 1.34606
Spine1  11.0754 0.394974 -1.40808
HEad  -46.3492 -0.33779 -1.87596
LeftShoulder1  2.08728 -3.31011 -24.429
LeftArm  1.4145 -48.5386 -38.7752
LeftForeArm  -13.0558 -22.6633 -5.63435
LeftHand  -0.0666262 3.81557 3.62005
RightShoulder  1.18552 1.77673 15.7902
RightArm  51.3634 41.6663 50.3784
RightForeArm  -107.416 9.14589 17.8024
RightHand  9.25917 22.4409 36.6012
LeftUpLeg  -8.72494 9.05881 1.42135
LeftLeg  12.7277 0.681717 -0.758099
LeftFoot  2.55039 -0.305353 2.38044
LeftToes  -2.21735e-009 9.83027e-011 -4.04511e-011
1426
root  75.9931 38.8936 6.90324 -2.44656 88.3297 1.28116
RightUpLeg  -3.72644 -12.9 -8.42381
RightLeg  20.7791 -11.0427 -4.80828
RightFoot  -3.19067 -0.626664 8.44635
RightToes  3.49245e-010 0 -3.6325e-017
Spine  8.22177 0.237188 2.13189
Spine1  11.0633 0.712967 -1.55185
HEad  -46.7253 -1.10434 -1.86053
LeftShoulder1  2.03122 -3.02719 -24.9149
LeftArm  1.85396 -48.4256 -39.2052
LeftForeArm  -12.4851 -23.7384 -5.68328
LeftHand  -0.0685152 3.69486 3.46682
RightShoulder  1.09961 1.12394 17.1961
RightArm  85.7169 40.0822 42.9251
RightForeArm  -137.86 32.1684 6.19323
RightHand  9.44327 30.9292 28.4094
LeftUpLeg  -8.95958 9.60603 1.86138
LeftLeg  12.4478 0.629091 -0.804784
LeftFoot  2.4153 -0.272899 2.13947
LeftToes  -2.21735e-009 9.83027e-011 -4.04511e-011
1427
root  76.0417 38.9121 6.7134 -6.51059 87.1854 -2.85147
RightUpLeg  -3.61816 -12.7971 -8.83603
RightLeg  20.0372 -8.56571 -3.65824
RightFoot  -2.99026 -0.678261 9.04999
RightToes  3.49245e-010 0 -3.6325e-017
Spine  7.97673 0.286022 3.25091
Spine1  11.4648 1.15179 -2.84711
HEad  -47.2294 -0.622094 -2.16969
LeftShoulder1  1.98908 -2.85175 -25.1174
LeftArm  0.254149 -47.4038 -39.5386
LeftForeArm  -11.3494 -24.7102 -5.84494
LeftHand  -0.0885395 3.28342 4.08948
RightShoulder  1.10595 1.07633 17.6326
RightArm  76.6357 40.1883 39.9405
RightForeArm  -126.715 35.8628 8.83751
RightHand  9.34083 34.8264 25.3258
LeftUpLeg  -8.8042 9.78017 1.99412
LeftLeg  12.5206 1.77449 -0.752411
LeftFoot  1.93717 -0.226497 1.84657
LeftToes  -2.21735e-009 9.83027e-011 -4.04511e-011
1428
root  76.0474 38.8767 6.55204 -1.97626 85.9352 1.63321
RightUpLeg  -3.69535 -10.3819 -10.0992
RightLeg  20.0284 -3.12418 -1.45707
RightFoot  -4.52991 -0.816352 13.1972
RightToes  3.49245e-010 0 -3.6325e-017
Spine  7.69465 0.356919 2.97475
Spine1  11.7913 1.20326 -3.17253
HEad  -47.4323 0.0677396 -2.83185
LeftShoulder1  1.96736 -2.78397 -25.1093
LeftArm  -3.60537 -45.1779 -40.0434
LeftForeArm  -8.67149 -25.7885 -5.9673
LeftHand  -0.0943932 3.05065 3.95374
RightShoulder  1.14256 1.24146 17.5607
RightArm  85.2552 42.1755 46.525
RightForeArm  -122.899 32.719 9.82349
RightHand  9.44799 42.3848 21.6188
LeftUpLeg  -8.83933 9.60427 1.79189
LeftLeg  12.8738 3.24916 -0.732817
LeftFoot  1.52417 -0.204735 1.73186
LeftToes  -2.21735e-009 9.83027e-011 -4.04511e-011
1429
root  76.0138 38.8125 6.40631 -0.38623 84.6772 3.95682
RightUpLeg  -3.10415 -7.63161 -11.483
RightLeg  21.3457 3.05745 1.11201
RightFoot  -5.86744 -0.827279 16.2417
RightToes  3.49245e-010 0 -3.6325e-017
Spine  8.5527 0.315711 3.11225
Spine1  11.3724 1.32503 -4.25371
HEad  -47.0902 1.68489 -3.92193
LeftShoulder1  1.88081 -2.48213 -25.2444
LeftArm  -7.40257 -41.9925 -41.0747
LeftForeArm  -5.78783 -27.5264 -6.23387
LeftHand  -0.136371 2.35124 4.87921
RightShoulder  1.09045 0.906757 18.2595
RightArm  113.19 51.051 67.0384
RightForeArm  -116.067 20.7043 14.1079
RightHand  6.16994 62.4654 9.08655
LeftUpLeg  -8.33342 9.12735 1.64437
LeftLeg  13.7468 4.83263 -0.363314
LeftFoot  0.90665 -0.161085 1.45184
LeftToes  -2.21735e-009 9.83027e-011 -4.04511e-011
